<?xml version="1.0" standalone="no"?>
<!DOCTYPE svg PUBLIC "-//W3C//DTD SVG 20010904//EN"
 "http://www.w3.org/TR/2001/REC-SVG-20010904/DTD/svg10.dtd">
<svg version="1.0" xmlns="http://www.w3.org/2000/svg"
 width="700.000000pt" height="700.000000pt" viewBox="0 0 700.000000 700.000000"
 preserveAspectRatio="xMidYMid meet">
<metadata>
Created by potrace 1.11, written by Peter Selinger 2001-2013
</metadata>
<g transform="translate(0.000000,700.000000) scale(0.100000,-0.100000)"
fill="#000000" stroke="none">
<path d="M5727 6764 c-1 -2 -32 -6 -67 -10 -36 -3 -68 -8 -73 -11 -4 -2 -20
-7 -35 -9 -67 -12 -248 -81 -362 -139 -145 -74 -206 -101 -250 -110 -3 -1 -18
-4 -35 -8 -65 -16 -83 -18 -167 -21 -72 -3 -106 1 -195 25 -235 63 -466 105
-708 127 -107 9 -569 9 -675 -1 -153 -14 -296 -33 -330 -42 -8 -3 -33 -7 -55
-11 -101 -15 -376 -83 -470 -117 -41 -15 -211 -16 -253 -2 -11 3 -31 8 -43 10
-64 13 -166 53 -288 115 -247 125 -415 172 -616 173 -237 1 -442 -69 -640
-217 -71 -53 -200 -179 -218 -213 -6 -10 -13 -20 -16 -23 -6 -5 -44 -63 -73
-110 -30 -50 -87 -217 -103 -305 -41 -217 -13 -504 72 -730 35 -94 125 -282
179 -372 24 -41 44 -80 44 -86 0 -9 -30 -84 -100 -252 -4 -11 -13 -33 -18 -50
-6 -16 -14 -39 -18 -50 -4 -11 -8 -22 -9 -25 -1 -3 -13 -43 -28 -90 -35 -112
-74 -267 -92 -360 -8 -41 -17 -86 -19 -99 -6 -28 -24 -156 -31 -221 -23 -227
-23 -680 0 -855 2 -16 7 -57 10 -90 4 -33 18 -120 31 -193 125 -684 446 -1193
994 -1578 91 -64 105 -72 237 -151 287 -168 649 -310 1003 -392 110 -25 229
-49 277 -56 21 -3 52 -9 68 -12 46 -10 54 -11 130 -22 39 -6 79 -12 90 -15 11
-2 54 -7 95 -10 41 -4 93 -9 115 -11 219 -23 624 -22 815 0 19 3 53 7 75 9 22
3 67 8 100 11 33 4 67 8 75 10 8 3 40 7 70 10 30 3 87 12 125 20 39 7 90 17
115 20 129 19 410 89 565 140 215 71 478 186 630 276 17 10 48 27 70 39 22 12
81 49 130 83 387 259 675 576 841 927 25 52 50 103 55 112 9 18 22 52 65 173
61 172 122 440 140 618 3 29 7 66 9 82 28 227 22 691 -11 925 -3 25 -8 61 -10
80 -1 19 -6 51 -10 70 -8 40 -10 51 -19 100 -45 249 -175 633 -298 885 l-25
50 35 53 c19 30 50 86 69 126 19 39 39 79 45 88 30 56 94 281 115 403 13 79
13 356 0 420 -54 263 -125 396 -300 571 -205 203 -454 312 -732 318 -52 1 -96
1 -97 0z"/>
</g>
</svg>
